<?xml version="1.0" encoding="utf-8"?>
<!-- Generator: Adobe Illustrator 16.0.0, SVG Export Plug-In . SVG Version: 6.00 Build 0)  -->
<!DOCTYPE svg PUBLIC "-//W3C//DTD SVG 1.1//EN" "http://www.w3.org/Graphics/SVG/1.1/DTD/svg11.dtd">
<svg version="1.1"
	 id="Layer_1" xmlns:svg="http://www.w3.org/2000/svg" xmlns:sodipodi="http://sodipodi.sourceforge.net/DTD/sodipodi-0.dtd" xmlns:rdf="http://www.w3.org/1999/02/22-rdf-syntax-ns#" xmlns:inkscape="http://www.inkscape.org/namespaces/inkscape" xmlns:cc="http://creativecommons.org/ns#" xmlns:dc="http://purl.org/dc/elements/1.1/"
	 xmlns="http://www.w3.org/2000/svg" xmlns:xlink="http://www.w3.org/1999/xlink" x="0px" y="0px" width="200px" height="200px"
	 viewBox="0 0 200 200" enable-background="new 0 0 200 200" xml:space="preserve">
<g transform="translate(0,-952.36218)" opacity="0.9">
	<path fill="#FFFFFF" d="M26.4,999.562v3.2v25.6H32.8v-22.4h22.4v-6.4h-25.6H26.4z M144.8,999.562v6.4h22.4v22.4h6.399v-25.6v-3.2
		H170.4H144.8z M39.2,1012.362v80h9.6v-80H39.2z M52,1012.362v80h3.2v-80H52z M58.4,1012.362v80h19.2v-80H58.4z M82.4,1012.362v80
		h3.2v-80H82.4z M88.8,1012.362v80H92v-80H88.8z M95.2,1012.362v80h3.2v-80H95.2z M101.6,1012.362v80H114.4v-80H101.6z
		 M119.2,1012.362v80h8v-80H119.2z M130.4,1012.362v80h3.199v-80H130.4z M136.8,1012.362v80h6.4v-80H136.8z M148,1012.362v80h3.2
		v-80H148z M154.4,1012.362v80h6.399v-80H154.4z M26.4,1076.362v25.6v3.2h3.2h25.6v-6.399H32.8v-22.4H26.4z M167.2,1076.362v22.4
		h-22.4v6.399H170.4h3.199v-3.2v-25.6H167.2z"/>
</g>
</svg>
