<?xml version="1.0" encoding="utf-8"?>
<!-- Generator: Adobe Illustrator 16.0.0, SVG Export Plug-In . SVG Version: 6.00 Build 0)  -->
<!DOCTYPE svg PUBLIC "-//W3C//DTD SVG 1.1//EN" "http://www.w3.org/Graphics/SVG/1.1/DTD/svg11.dtd">
<svg version="1.1" id="Layer_1" xmlns="http://www.w3.org/2000/svg" xmlns:xlink="http://www.w3.org/1999/xlink" x="0px" y="0px"
	 width="200px" height="200px" viewBox="0 0 200 200" enable-background="new 0 0 200 200" xml:space="preserve">
<g opacity="0.9">
	<path fill="#FFFFFF" d="M58.305,72.882c-2.034,3.39-7.458-0.679-5.424-3.391C63.729,53.898,80,45.085,98.305,45.085
		c30.508,0,54.915,24.406,54.915,54.915s-24.407,54.916-54.915,54.916c-4.068,0-4.068-6.102,0-6.102
		c27.118,0,48.813-21.695,48.813-48.814c0-26.44-21.695-48.813-48.813-48.813C82.033,51.187,67.118,59.322,58.305,72.882z
		 M98.305,28.813c39.321,0,71.187,31.864,71.187,71.187s-31.865,71.187-71.187,71.187c-39.322,0-71.187-31.864-71.187-71.187
		S58.982,28.813,98.305,28.813z M98.305,34.915C62.373,34.915,33.22,64.067,33.22,100s29.153,65.085,65.085,65.085
		c35.932,0,65.084-29.152,65.084-65.085S134.236,34.915,98.305,34.915z M12.881,48.475c14.915,0,17.627,37.966,4.746,46.779
		c-2.712,16.271,0.678,45.424,1.356,68.475c0,0.679-0.678,1.356-1.356,1.356c-3.39,0-6.102,0-9.491,0
		c-0.678,0-1.356-0.678-1.356-1.356c0.678-23.051,4.068-48.813,1.356-68.475C-4.746,86.44-2.034,48.475,12.881,48.475z
		 M189.151,95.254c-2.033,16.271,0.678,45.424,1.355,68.475c0,0.679-0.678,1.356-1.355,1.356c-2.711,0-6.102,0-8.813,0
		c-0.678,0-1.356-0.678-1.356-1.356c0.679-23.051,4.068-48.813,1.356-68.475c-17.627-12.203-9.491-48.813-6.102-48.813
		c4.067,0,2.712,23.729,2.712,27.119c0,1.355,1.355,2.033,2.712,2.033l0,0c1.356,0,2.034-0.678,2.034-2.033
		c0-3.39-0.678-27.119,3.39-27.119c3.39,0,2.712,24.407,2.712,27.119c0,1.355,0.678,2.033,2.033,2.033l0,0
		c1.356,0,2.713-0.678,2.713-2.033c0-3.39-1.356-27.119,2.711-27.119C198.644,46.44,206.778,83.051,189.151,95.254z M9.491,51.864
		c-8.136,10.17-8.136,29.831,0,39.322C4.067,81.017,4.067,62.712,9.491,51.864z"/>
</g>
</svg>
