<?xml version="1.0" encoding="utf-8"?>
<!-- Generator: Adobe Illustrator 16.0.0, SVG Export Plug-In . SVG Version: 6.00 Build 0)  -->
<!DOCTYPE svg PUBLIC "-//W3C//DTD SVG 1.1//EN" "http://www.w3.org/Graphics/SVG/1.1/DTD/svg11.dtd">
<svg version="1.1" id="Layer_1" xmlns="http://www.w3.org/2000/svg" xmlns:xlink="http://www.w3.org/1999/xlink" x="0px" y="0px"
	 width="200px" height="200px" viewBox="0 0 200 200" enable-background="new 0 0 200 200" xml:space="preserve">
<g opacity="0.9">
	<path fill="#FFFFFF" d="M100.629,79.381c2,0,3.623,1.623,3.623,3.623s-1.623,3.623-3.623,3.623c-2,0-3.622-1.623-3.622-3.623
		S98.629,79.381,100.629,79.381z"/>
	<path fill="#FFFFFF" d="M116.592,55.065c0-2.905-2.904-2.905-5.811,0v5.811l-8.717,17.433l14.527-17.433V55.065z"/>
	<path fill="#FFFFFF" d="M84.668,55.065c0-2.905,2.904-2.905,5.811,0v5.811l8.716,17.433L84.668,60.876V55.065z"/>
	<polygon fill="#FFFFFF" points="96.271,88.748 104.986,88.748 104.986,106.181 96.271,106.181 	"/>
	<polygon fill="#FFFFFF" points="96.271,110.27 104.986,110.27 104.986,158.386 96.271,158.386 	"/>
	<path fill="#FFFFFF" d="M93.365,89.932C70.12,46.35,46.878,17.296,14.918,20.201c-11.622,2.904,5.811,75.54,23.245,75.54h46.486
		c-31.96,5.811-52.298,11.622-58.109,23.245c-2.905,14.526,11.622,40.676,29.053,61.014c23.245-20.338,40.676-46.487,37.771-90.069
		L93.365,89.932L93.365,89.932z M78.838,121.89c0,17.434-8.715,26.148-17.433,34.865c-2.904-8.717-11.622-20.338-5.811-23.245
		l23.245-11.622L78.838,121.89L78.838,121.89z M73.027,78.31C61.405,55.065,49.783,43.445,35.256,43.445
		c-8.716,0-5.811,11.622,2.904,31.96l34.865,2.904H73.027L73.027,78.31z"/>
	<path fill="#FFFFFF" d="M107.894,89.932c23.245-43.582,46.487-72.636,75.54-69.731c14.527,2.904-2.904,75.54-20.338,75.54h-46.486
		c29.053,5.811,52.297,11.622,58.109,23.245c2.904,14.526-11.623,40.676-29.054,61.014c-23.245-20.338-40.676-46.487-37.771-90.069
		V89.932L107.894,89.932z M122.42,121.89c0,17.434,8.716,26.148,17.434,34.865c2.904-8.717,11.623-20.338,5.811-23.245
		l-23.244-11.622V121.89L122.42,121.89z M128.231,78.31c11.622-23.244,23.245-34.864,37.771-34.864
		c8.717,0,5.812,11.622-2.904,31.96l-34.864,2.904H128.231L128.231,78.31z"/>
</g>
<text transform="matrix(1 0 0 1 206.042 496.0283)" font-family="'Arial-BoldMT'" font-size="5">Created by Andy Mc</text>
</svg>
