<?xml version="1.0" encoding="utf-8"?>
<!-- Generator: Adobe Illustrator 16.0.0, SVG Export Plug-In . SVG Version: 6.00 Build 0)  -->
<!DOCTYPE svg PUBLIC "-//W3C//DTD SVG 1.1//EN" "http://www.w3.org/Graphics/SVG/1.1/DTD/svg11.dtd">
<svg version="1.1" id="Layer_1" xmlns="http://www.w3.org/2000/svg" xmlns:xlink="http://www.w3.org/1999/xlink" x="0px" y="0px"
	 width="200px" height="200px" viewBox="0 0 200 200" enable-background="new 0 0 200 200" xml:space="preserve">
<title>14</title>
<path opacity="0.9" fill="#FFFFFF" d="M95.72,67.96c-5.764,0.002-11.268,2.395-15.2,6.608l-17.6,18.8H47.736
	c-13.254,0-24,10.745-24,24v4.992c0,6.186,5.015,11.199,11.2,11.199h3.008c3.269,9.809,13.87,15.111,23.678,11.843
	c5.591-1.863,9.979-6.251,11.842-11.843h54.944c3.229,9.822,13.807,15.168,23.629,11.939c5.65-1.857,10.082-6.289,11.939-11.939
	h1.088c6.186,0,11.199-5.014,11.199-11.199V98.168c-0.02-1.34-0.6-2.611-1.6-3.504l-27.199-25.392
	c-0.869-0.814-2.01-1.276-3.201-1.296h-5.887V63.16h6.639c2.652,0,4.801-2.149,4.801-4.8s-2.148-4.8-4.801-4.8H90.136
	c-2.651,0-4.8,2.149-4.8,4.8s2.149,4.8,4.8,4.8h6.64v4.8H95.72z M124.52,77.56l7.121,15.824h-18.129V77.56H124.52z M87.544,81.128
	c2.114-2.27,5.074-3.562,8.176-3.568h8.176v15.824H76.088L87.544,81.128z M55.704,136.76c-5.045,0.036-9.165-4.026-9.2-9.071
	c-0.036-5.046,4.026-9.165,9.072-9.2s9.165,4.026,9.2,9.071c0,0.017,0,0.032,0,0.049C64.776,132.632,60.728,136.716,55.704,136.76z
	 M146.152,136.76c-5.045,0-9.137-4.091-9.137-9.136c0-5.046,4.092-9.137,9.137-9.137s9.137,4.091,9.137,9.137l0,0
	c-0.01,5.035-4.086,9.118-9.121,9.136H146.152z M165,123.96h-0.48c-1.949-10.162-11.77-16.818-21.932-14.868
	c-7.531,1.446-13.422,7.336-14.867,14.868H74.088c-1.951-10.162-11.77-16.818-21.932-14.868
	c-7.532,1.446-13.422,7.336-14.868,14.868h-2.352c-0.884,0-1.6-0.717-1.6-1.6v-4.992c0-7.953,6.447-14.4,14.4-14.4h118.881v19.393
	c0,0.883-0.717,1.6-1.602,1.6H165z M159.256,93.4h-17.039l-7.121-15.84h7.264L159.256,93.4z M106.377,63.16h22.398v4.8h-22.398
	V63.16z"/>
<path opacity="0.9" fill="#FFFFFF" d="M104.561,86.96h-8.577c-2.651,0-4.8,2.149-4.8,4.8c0,2.651,2.149,4.8,4.8,4.8h8.577
	c2.65,0,4.799-2.149,4.799-4.8C109.359,89.109,107.211,86.96,104.561,86.96z"/>
</svg>
