<?xml version="1.0" encoding="utf-8"?>
<!-- Generator: Adobe Illustrator 16.0.0, SVG Export Plug-In . SVG Version: 6.00 Build 0)  -->
<!DOCTYPE svg PUBLIC "-//W3C//DTD SVG 1.1//EN" "http://www.w3.org/Graphics/SVG/1.1/DTD/svg11.dtd">
<svg version="1.1" id="Layer_1" xmlns="http://www.w3.org/2000/svg" xmlns:xlink="http://www.w3.org/1999/xlink" x="0px" y="0px"
	 width="128px" height="128px" viewBox="36 16 128 128" enable-background="new 36 16 128 128" xml:space="preserve">
<path fill="#1B2B34" d="M36,16l10.667,117.334L100,144l53.333-10.666L164,16H36z M143.434,124.438L100,133.118l-43.434-8.681
	l-8.891-97.772h104.64L143.434,124.438z"/>
<polygon fill="#1B2B34" points="63.723,85.334 125.563,85.334 123.625,106.646 100,111.366 76.37,106.646 75.406,96 64.693,96 
	66.469,115.541 100,122.24 133.531,115.541 137.244,74.666 86.792,74.666 139.667,48 140.635,37.333 59.36,37.333 60.328,48 
	115.979,48 63.104,74.666 "/>
</svg>
