<?xml version="1.0" encoding="utf-8"?>
<!-- Generator: Adobe Illustrator 16.0.0, SVG Export Plug-In . SVG Version: 6.00 Build 0)  -->
<!DOCTYPE svg PUBLIC "-//W3C//DTD SVG 1.1//EN" "http://www.w3.org/Graphics/SVG/1.1/DTD/svg11.dtd">
<svg version="1.1" id="Layer_1" xmlns="http://www.w3.org/2000/svg" xmlns:xlink="http://www.w3.org/1999/xlink" x="0px" y="0px"
	 width="2500.004px" height="2437.508px" viewBox="0 130.994 2500.004 2437.508"
	 enable-background="new 0 130.994 2500.004 2437.508" xml:space="preserve">
<path fill="#1B2B34" d="M104.166,235.159h2291.673v2229.173H104.166V235.159z M0,2568.502h2500.004V130.994H0V2568.502z
	 M1637.501,999.746c0-8.332,3.124-12.502,12.503-12.502h163.541c8.328,0,12.498,3.124,12.498,12.502v821.88
	c0,8.327-2.083,12.498-12.498,12.498h-161.458c-10.416,0-13.544-5.208-13.544-13.54V999.746H1637.501L1637.501,999.746z
	 M1626.044,763.285c0-66.666,46.873-106.248,106.253-106.248c63.542,0,106.248,42.707,106.248,106.248
	c0,68.75-44.789,106.249-108.331,106.249C1669.793,869.538,1626.044,832.035,1626.044,763.285z M1157.293,1342.455
	c-29.162-115.626-97.911-367.71-123.958-489.585h-2.083c-21.877,121.875-77.082,328.123-120.83,489.585H1157.293z M867.711,1511.208
	l-82.294,312.501c-2.083,8.327-5.207,10.411-15.622,10.411H616.669c-10.415,0-12.503-3.125-10.415-15.623L902.085,783.075
	c5.208-18.748,8.333-35.417,10.416-86.456c0-7.29,3.124-10.415,8.332-10.415h218.75c7.291,0,10.415,2.083,12.503,10.415
	l331.248,1123.961c2.083,8.328,0,13.54-8.332,13.54h-172.92c-8.332,0-13.544-2.083-15.622-9.37l-85.418-313.542H867.711
	L867.711,1511.208z"/>
</svg>
