<?xml version="1.0" encoding="utf-8"?>
<!-- Generator: Adobe Illustrator 16.0.0, SVG Export Plug-In . SVG Version: 6.00 Build 0)  -->
<!DOCTYPE svg PUBLIC "-//W3C//DTD SVG 1.1//EN" "http://www.w3.org/Graphics/SVG/1.1/DTD/svg11.dtd">
<svg version="1.1" id="Layer_1" xmlns="http://www.w3.org/2000/svg" xmlns:xlink="http://www.w3.org/1999/xlink" x="0px" y="0px"
	 width="2500px" height="2500px" viewBox="0 0 2500 2500" enable-background="new 0 0 2500 2500" xml:space="preserve">
<path fill="#FFFFFF" d="M0,0v2500h2500V0H0z M1360.488,1949.873c0,243.33-142.637,354.092-350.742,354.092
	c-187.939,0-297.031-97.334-352.412-214.805l0.01,0.02l191.309-115.781c36.914,65.439,70.488,120.811,151.025,120.811
	c77.197,0,125.879-30.195,125.879-147.656v-798.809h234.932V1949.873z M1916.006,2303.994c-218.154,0-359.121-104.043-427.92-239.98
	l0.01-0.01l191.289-110.752c50.361,82.236,115.811,142.646,231.592,142.646c97.354,0,159.424-48.672,159.424-115.801
	c0-80.547-63.77-109.082-171.172-156.055l-58.721-25.195c-169.502-72.139-281.934-162.764-281.934-354.072
	c0-176.211,134.248-310.469,344.023-310.469c149.355,0,256.758,52.031,333.945,187.959l-182.93,117.48
	c-40.283-72.158-83.896-100.684-151.025-100.684c-68.809,0-112.441,43.633-112.441,100.684c0,70.479,43.633,99.023,144.316,142.656
	l58.73,25.166c199.707,85.596,312.139,172.852,312.139,369.18C2305.332,2188.213,2139.199,2303.994,1916.006,2303.994z"/>
</svg>
