<?xml version="1.0" encoding="utf-8"?>
<!-- Generator: Adobe Illustrator 16.0.0, SVG Export Plug-In . SVG Version: 6.00 Build 0)  -->
<!DOCTYPE svg PUBLIC "-//W3C//DTD SVG 1.1//EN" "http://www.w3.org/Graphics/SVG/1.1/DTD/svg11.dtd">
<svg version="1.1" id="Layer_1" xmlns="http://www.w3.org/2000/svg" xmlns:xlink="http://www.w3.org/1999/xlink" x="0px" y="0px"
	 width="256px" height="289px" viewBox="0 0 256 289" enable-background="new 0 0 256 289" xml:space="preserve">
<g>
	<path fill="#FFFFFF" d="M128,288.464c-3.975,0-7.686-1.06-11.13-2.915l-35.247-20.936c-5.3-2.916-2.65-3.976-1.06-4.506
		c7.155-2.385,8.48-2.915,15.901-7.155c0.795-0.53,1.855-0.265,2.65,0.265l27.031,16.166c1.06,0.53,2.384,0.53,3.18,0
		l105.739-61.217c1.06-0.53,1.59-1.59,1.59-2.916V83.081c0-1.325-0.53-2.385-1.59-2.915L129.325,19.213
		c-1.06-0.53-2.385-0.53-3.18,0L20.406,80.166c-1.06,0.53-1.59,1.855-1.59,2.915V205.25c0,1.061,0.53,2.386,1.59,2.916
		l28.886,16.695c15.636,7.95,25.441-1.325,25.441-10.601V93.681c0-1.59,1.325-3.18,3.18-3.18h13.516c1.59,0,3.18,1.325,3.18,3.18
		v120.58c0,20.937-11.396,33.126-31.271,33.126c-6.095,0-10.865,0-24.381-6.625l-27.826-15.9C4.24,220.887,0,213.466,0,205.516
		V83.346C0,75.396,4.24,67.975,11.13,64L116.87,2.783c6.625-3.71,15.636-3.71,22.261,0L244.869,64
		C251.76,67.975,256,75.396,256,83.346v122.17c0,7.95-4.24,15.371-11.131,19.346l-105.738,61.217
		C135.686,287.669,131.71,288.464,128,288.464L128,288.464z M160.596,204.455c-46.376,0-55.917-21.2-55.917-39.221
		c0-1.59,1.325-3.181,3.18-3.181h13.78c1.59,0,2.915,1.06,2.915,2.65c2.12,14.046,8.215,20.936,36.307,20.936
		c22.261,0,31.801-5.035,31.801-16.96c0-6.891-2.65-11.926-37.366-15.371c-28.886-2.915-46.907-9.275-46.907-32.332
		c0-21.466,18.021-34.186,48.232-34.186c33.922,0,50.617,11.66,52.737,37.102c0,0.795-0.265,1.59-0.796,2.385
		c-0.529,0.53-1.324,1.06-2.119,1.06h-13.781c-1.324,0-2.65-1.06-2.914-2.385c-3.181-14.575-11.396-19.346-33.127-19.346
		c-24.381,0-27.296,8.48-27.296,14.841c0,7.685,3.444,10.07,36.306,14.311c32.597,4.24,47.967,10.336,47.967,33.127
		C213.334,191.205,194.252,204.455,160.596,204.455L160.596,204.455z"/>
</g>
</svg>
