<?xml version="1.0" encoding="utf-8"?>
<!-- Generator: Adobe Illustrator 16.0.0, SVG Export Plug-In . SVG Version: 6.00 Build 0)  -->
<!DOCTYPE svg PUBLIC "-//W3C//DTD SVG 1.1//EN" "http://www.w3.org/Graphics/SVG/1.1/DTD/svg11.dtd">
<svg version="1.1" id="Layer_1" xmlns="http://www.w3.org/2000/svg" xmlns:xlink="http://www.w3.org/1999/xlink" x="0px" y="0px"
	 width="512px" height="180px" viewBox="0 0 512 180" enable-background="new 0 0 512 180" xml:space="preserve">
<g>
	<path fill="#1B2B34" d="M219.115,150.634c0,0,22.569-1.935,22.569-31.081s-27.341-31.855-27.341-31.855h-49.266v91.954h24.762
		v-22.183l21.409,22.183h36.626L219.115,150.634z M209.572,131.805H189.84v-21.021h19.861c0,0,5.546,2.063,5.546,10.445
		C215.247,129.612,209.572,131.805,209.572,131.805z M302.814,88.343h-25.148c-17.926,0-23.987,16.249-23.987,23.987v67.321h25.148
		V163.53h23.601v16.121h24.375V112.33C326.803,92.728,309.006,88.343,302.814,88.343z M302.428,137.479h-23.729v-22.311
		c0,0,0-5.029,7.867-5.029h8.641c6.964,0,7.093,5.029,7.093,5.029v22.311H302.428z M338.281,88.343h26.181v91.309h-26.181V88.343z
		 M401.217,156.051V88.343h-26.051v67.708v23.601h26.051h35.208v-23.601H401.217z M445.066,156.309v23.343h42.172
		c8.641,0,23.472-6.319,23.988-23.987v-9.028c0-15.089-12.381-23.987-23.988-23.987h-21.021v-10.834h41.656V88.343h-39.979
		c-10.317,0-24.117,8.512-24.117,24.374v8.125c0,15.863,13.671,23.988,24.117,23.988c29.018,0.129-6.965,0,19.86,0v11.35
		L445.066,156.309z"/>
	<path fill="#1B2B34" d="M9.028,179.522h101.884c0,0-19.474-88.858,45.01-124.84c14.058-6.835,58.809-32.371,132.063,21.795
		c2.32-1.935,4.514-3.482,4.514-3.482S225.435,6.062,150.763,13.542c-37.529,3.353-83.7,37.53-110.783,82.667
		C12.896,141.348,9.028,179.522,9.028,179.522z M221.308,20.764l0.516-8.641c-1.161-0.645-4.385-2.192-12.51-4.514l-0.516,8.512
		C213.054,17.54,217.181,19.087,221.308,20.764z M209.056,48.105l-0.516,8.125c4.256,0.129,8.512,0.645,12.768,1.548l0.516-7.996
		C217.439,48.878,213.183,48.363,209.056,48.105z M161.338,7.867h1.29L160.048,0c-3.998,0-8.125,0.258-12.381,0.774l2.45,7.609
		C153.858,7.996,157.598,7.867,161.338,7.867z M167.528,55.327l2.966,8.898c3.74-1.806,7.48-3.353,11.22-4.514l-2.837-8.512
		C174.493,52.49,170.752,53.908,167.528,55.327z M108.978,21.409l-5.804-8.899c-3.224,1.677-6.577,3.482-10.06,5.546l5.933,9.027
		C102.4,25.02,105.624,23.085,108.978,21.409z M135.416,79.444l6.19,9.286c2.192-3.224,4.772-6.19,7.609-9.157l-5.804-8.77
		C140.445,73.511,137.737,76.478,135.416,79.444z M116.715,120.971l10.446,8.254c0.516-5.029,1.419-10.059,2.708-15.088
		l-9.286-7.352C118.908,111.557,117.747,116.328,116.715,120.971z M60.228,59.712l-9.157-7.996
		c-3.353,3.224-6.577,6.448-9.543,9.673l9.931,8.512C54.166,66.418,57.132,62.936,60.228,59.712z M21.28,117.36l-14.832-5.417
		C3.998,117.489,1.29,123.938,0,127.42l14.831,5.416C16.508,128.451,19.216,122.132,21.28,117.36z M114.781,153.729
		c0.258,6.836,0.903,12.381,1.548,16.25l15.476,5.546c-1.161-5.03-2.322-10.704-3.095-16.766L114.781,153.729z"/>
</g>
</svg>
