<?xml version="1.0" encoding="utf-8"?>
<!-- Generator: Adobe Illustrator 16.0.0, SVG Export Plug-In . SVG Version: 6.00 Build 0)  -->
<!DOCTYPE svg PUBLIC "-//W3C//DTD SVG 1.1//EN" "http://www.w3.org/Graphics/SVG/1.1/DTD/svg11.dtd">
<svg version="1.1" id="Layer_1" xmlns="http://www.w3.org/2000/svg" xmlns:xlink="http://www.w3.org/1999/xlink" x="0px" y="0px"
	 width="2206.509px" height="1963.168px" viewBox="148.851 141.737 2206.509 1963.168"
	 enable-background="new 148.851 141.737 2206.509 1963.168" xml:space="preserve">
<path fill="#FFFFFF" d="M1963.053,778.034c-23.485-8.057-47.171-15.52-71.032-22.382c3.957-16.079,7.616-32.23,10.977-48.445
	c53.767-261.005,18.612-471.27-101.441-540.485c-115.103-66.384-303.356,2.832-493.485,168.284
	c-18.734,16.34-37.054,33.152-54.939,50.417c-11.978-11.48-24.166-22.739-36.561-33.768
	c-199.26-176.926-398.987-251.474-518.914-182.053c-114.995,66.569-149.057,264.247-100.65,511.6
	c4.816,24.495,10.254,48.864,16.309,73.083c-28.261,8.027-55.555,16.581-81.667,25.683
	c-233.604,81.441-382.796,209.093-382.796,341.489c0,136.752,160.149,273.915,403.479,357.075
	c19.73,6.712,39.625,12.932,59.666,18.651c-6.511,26.092-12.291,52.361-17.334,78.776
	c-46.15,243.057-10.106,436.046,104.586,502.206c118.462,68.307,317.281-1.904,510.887-171.136
	c15.302-13.379,30.663-27.567,46.043-42.439c19.373,18.69,39.262,36.839,59.646,54.421
	c187.531,161.37,372.738,226.534,487.333,160.199c118.354-68.514,156.81-275.839,106.87-528.084
	c-3.809-19.267-8.252-38.943-13.231-58.981c13.964-4.121,27.665-8.379,41.033-12.813
	c252.958-83.805,417.531-219.297,417.531-357.876C2355.36,988.582,2201.363,860.072,1963.053,778.034z M1369.952,406.116
	c162.903-141.771,315.153-197.746,384.525-157.738c73.884,42.615,102.623,214.454,56.199,439.806
	c-3.043,14.68-6.351,29.304-9.922,43.865c-91.539-21.122-190.949-36.845-295.026-46.609
	c-60.633-86.335-123.452-164.837-186.516-232.783C1335.738,436.726,1352.656,421.207,1369.952,406.116z M800.357,1234.558
	c19.954,38.544,40.812,76.612,62.556,114.175c22.188,38.317,45.286,76.1,69.274,113.316
	c-72.263-8.066-140.414-18.994-203.351-32.694C748.318,1366.447,772.321,1301.059,800.357,1234.558z M800.25,1012.868
	c-27.45-65.104-50.936-129.116-70.114-190.93c62.956-14.092,130.092-25.604,200.04-34.345
	c-23.414,36.521-45.969,73.588-67.644,111.168C840.887,936.308,820.12,974.354,800.25,1012.868z M850.355,1123.723
	c29.043-60.45,60.35-119.786,93.854-177.883v0.02c33.493-58.109,69.182-114.926,106.987-170.325
	c65.622-4.961,132.905-7.559,200.919-7.559c68.318,0,135.688,2.617,201.291,7.617c37.424,55.314,72.884,111.933,106.313,169.749
	c33.619,57.967,65.344,117.013,95.123,177.043c-29.473,60.642-61.097,120.215-94.811,178.605h-0.009
	c-33.425,58.064-68.729,115.025-105.855,170.794c-65.466,4.678-133.119,7.09-202.062,7.09c-68.659,0-135.454-2.139-199.777-6.309
	c-38.09-55.639-74.062-112.698-107.837-171.058C910.874,1243.459,879.473,1184.154,850.355,1123.723z M1641.68,1348.079
	c22.195-38.49,43.53-77.47,63.991-116.909c29.491,67.224,54.354,132.26,74.099,194.103c-63.981,14.6-133.051,26.356-205.831,35.087
	C1597.261,1423.385,1619.846,1385.951,1641.68,1348.079z M1704.772,1012.937c-20.392-38.692-41.554-76.973-63.474-114.819
	c-21.57-37.26-43.941-74.051-67.097-110.348c70.407,8.887,137.855,20.702,201.192,35.165
	C1756.382,883.879,1732.682,947.606,1704.772,1012.937z M1253.161,520.066c43.475,47.098,87.018,99.693,129.848,156.751
	c-86.881-4.105-173.907-4.125-260.79-0.059C1165.088,620.229,1209.002,567.711,1253.161,520.066z M744.881,251.181
	c73.825-42.733,237.051,18.202,409.095,170.959c10.995,9.766,22.04,19.989,33.104,30.565
	c-64.099,68.835-127.445,147.2-187.961,232.607c-103.774,9.618-203.116,25.067-294.44,45.76
	c-5.626-22.531-10.683-45.2-15.165-67.985v0.01C648.039,451.163,675.577,291.296,744.881,251.181z M637.288,1406.387
	c-18.294-5.236-36.456-10.921-54.471-17.05c-107.593-36.776-196.446-84.567-257.353-136.713
	c-54.724-46.874-82.36-93.405-82.36-131.167c0-80.338,119.791-182.824,319.577-252.479c25.076-8.705,50.401-16.673,75.944-23.896
	c27.616,89.811,63.835,183.713,107.544,278.67C701.895,1220.125,665.158,1315.521,637.288,1406.387z M1148.106,1836.047
	c-85.611,74.84-171.399,127.924-247.001,154.632h-0.01c-67.938,23.993-122.046,24.677-154.75,5.82
	c-69.606-40.136-98.531-195.109-59.069-402.962c4.692-24.564,10.065-48.993,16.112-73.259
	c90.377,19.989,190.422,34.374,297.351,43.045c61.043,85.905,124.976,164.866,189.406,234.014
	C1176.452,1810.583,1162.436,1823.49,1148.106,1836.047z M1255.768,1729.508c-44.676-48.211-89.234-101.529-132.758-158.88
	c42.244,1.66,85.318,2.5,129.097,2.5c44.979,0,89.439-1.006,133.197-2.959C1342.337,1628.564,1298.95,1681.961,1255.768,1729.508z
	 M1828.166,1860.655c-13.144,70.837-39.568,118.062-72.243,136.977c-69.538,40.252-218.253-12.07-378.617-150.072
	c-18.388-15.819-36.912-32.713-55.485-50.583c62.175-68.006,124.311-147.064,184.953-234.854
	c106.675-9.463,207.452-24.941,298.845-46.063c4.492,18.163,8.495,35.965,11.942,53.376
	C1839.641,1680.975,1842.794,1781.82,1828.166,1860.655z M1908.191,1389.864h-0.009c-12.061,3.993-24.442,7.851-37.06,11.591
	c-27.929-88.404-65.622-182.414-111.733-279.529c44.012-94.82,80.241-187.619,107.388-275.457
	c22.567,6.543,44.48,13.427,65.594,20.702c204.19,70.28,328.736,174.212,328.736,254.286
	C2261.107,1206.756,2126.591,1317.494,1908.191,1389.864z"/>
<path fill="#FFFFFF" d="M1252.105,924.425c108.824,0,197.033,88.219,197.033,197.032c0,108.823-88.209,197.043-197.033,197.043
	c-108.813,0-197.032-88.219-197.032-197.043C1055.073,1012.644,1143.292,924.425,1252.105,924.425"/>
</svg>
