<?xml version="1.0" encoding="utf-8"?>
<!-- Generator: Adobe Illustrator 16.0.0, SVG Export Plug-In . SVG Version: 6.00 Build 0)  -->
<!DOCTYPE svg PUBLIC "-//W3C//DTD SVG 1.1//EN" "http://www.w3.org/Graphics/SVG/1.1/DTD/svg11.dtd">
<svg version="1.1" id="Layer_1" xmlns="http://www.w3.org/2000/svg" xmlns:xlink="http://www.w3.org/1999/xlink" x="0px" y="0px"
	 width="2500px" height="1875px" viewBox="0 0 2500 1875" enable-background="new 0 0 2500 1875" xml:space="preserve">
<path fill="#1B2B34" d="M2151.367,1077.148c-87.402,0.493-163.086,21.484-226.563,52.739
	c-23.438-46.387-46.875-86.919-50.776-117.188c-4.395-35.156-9.766-56.646-4.395-98.633c5.366-41.997,29.78-101.567,29.78-106.45
	c-0.493-4.395-5.376-25.879-55.664-26.367s-93.75,9.766-98.633,22.949s-14.648,43.457-20.996,74.707
	c-8.789,45.898-100.586,208.496-152.832,293.945c-17.09-33.203-31.738-62.5-34.673-85.942c-4.39-35.151-9.766-56.641-4.39-98.628
	c5.371-41.997,29.785-101.563,29.785-106.445c-0.488-4.395-5.371-25.879-55.659-26.367c-50.298-0.488-93.75,9.766-98.633,22.949
	s-10.254,44.434-20.996,74.707c-10.259,30.273-132.329,301.758-164.067,372.559c-16.113,36.133-30.269,64.941-40.527,84.473
	c-10.254,19.531-0.488,1.465-1.465,3.418c-8.789,16.602-13.672,25.879-13.672,25.879v0.493
	c-6.836,12.207-14.16,23.921-17.583,23.921c-2.441,0-7.324-32.715,0.977-77.632c18.066-94.243,62.012-241.211,61.528-246.582
	c0-2.441,8.296-28.325-28.325-41.504c-35.645-13.184-48.335,8.789-51.27,8.789c-2.93,0-5.371,7.813-5.371,7.813
	s39.551-165.522-75.684-165.522c-72.266,0-171.875,78.613-221.191,150.391c-31.25,17.09-97.656,53.218-167.969,91.797
	c-26.855,14.648-54.688,30.273-81.055,44.434l-5.366-5.869c-139.648-148.926-397.949-254.395-387.207-454.59
	c3.906-72.754,29.297-264.648,496.099-497.07c382.324-190.43,688.477-138.184,741.694-21.973
	c75.684,166.016-163.574,474.609-561.03,519.043c-151.367,17.09-230.962-41.504-250.977-63.477
	c-20.996-22.949-23.926-23.926-31.738-19.531c-12.695,6.836-4.883,27.344,0,39.551c11.719,30.762,60.547,85.449,143.555,112.793
	c72.749,23.926,250.488,37.109,465.332-45.898c240.723-93.262,428.711-352.051,373.535-568.359
	C1508.794,10.254,1143.56-62.012,798.345,60.547c-205.571,73.242-428.228,187.5-588.384,337.402
	C19.531,575.684-10.742,730.957,1.953,795.41c44.438,229.98,361.328,379.883,488.281,490.723
	c-6.348,3.413-12.207,6.831-17.578,9.766c-63.477,31.245-305.176,157.715-365.723,291.499
	c-68.359,151.367,10.742,260.259,63.477,274.907c163.086,45.41,330.078-36.133,420.41-170.41
	c89.839-134.277,79.102-308.594,37.598-388.184l-1.47-2.93l49.805-29.297c32.231-19.043,63.97-36.621,91.797-51.763
	c-15.62,42.48-26.855,92.773-32.71,166.016c-6.836,85.942,28.32,197.266,74.707,241.211c20.508,19.038,44.922,19.531,60.059,19.531
	c53.711,0,78.125-44.438,104.98-97.656c33.203-64.941,62.5-140.137,62.5-140.137s-36.621,203.613,63.477,203.613
	c36.621,0,73.242-47.363,89.844-71.777v0.488c0,0,0.977-1.465,2.93-4.883c2.049-3.029,4.003-6.122,5.859-9.272v-0.977
	c14.648-25.391,47.363-83.496,96.191-179.688c62.983-124.023,123.535-279.297,123.535-279.297s5.859,38.086,23.926,100.586
	c10.737,37.114,34.175,77.637,52.241,117.188c-14.648,20.508-23.438,32.231-23.438,32.231l0.488,0.488
	c-11.714,15.625-24.902,32.231-38.569,48.828c-49.805,59.57-109.375,127.446-117.188,146.978
	c-9.277,22.944-7.324,40.034,10.742,53.711c13.184,9.766,36.621,11.714,61.523,9.766c44.922-2.935,76.172-14.16,91.797-21.001
	c24.414-8.789,52.246-21.973,79.102-41.504c48.828-36.128,78.613-87.397,75.684-155.757c-1.465-37.598-13.672-74.707-28.809-109.863
	c4.395-6.348,8.794-12.7,13.184-19.531c77.148-112.798,136.719-236.816,136.719-236.816s5.859,38.086,23.926,100.586
	c9.272,31.738,27.832,66.411,44.434,100.591c-72.266,59.082-117.676,127.441-133.301,172.364
	c-28.809,83.008-6.348,120.605,36.133,129.395c19.038,3.905,46.387-4.883,66.89-13.672c25.391-8.301,56.152-22.467,84.478-43.457
	c48.828-36.133,95.703-86.426,93.262-154.297c-1.465-31.25-9.766-62.012-20.996-91.309c61.523-25.391,141.108-40.039,242.188-27.832
	c217.285,25.391,260.254,161.133,251.959,217.773c-8.301,56.646-53.711,87.891-68.854,97.656
	c-15.137,9.277-20.02,12.7-18.555,19.531c1.953,10.259,8.789,9.766,21.973,7.817c18.066-2.935,114.258-46.387,118.164-150.874
	C2504.883,1222.174,2377.441,1075.689,2151.367,1077.148L2151.367,1077.148z M475.586,1642.09
	c-71.777,78.613-172.852,108.398-215.82,83.008c-46.387-26.855-28.325-142.578,60.059-226.074
	c53.711-50.781,123.535-97.656,169.434-126.465c10.254-6.348,25.879-15.62,44.434-26.855c2.93-1.948,4.883-2.93,4.883-2.93
	c3.418-1.953,7.324-4.395,11.23-6.836C582.52,1455.078,551.27,1559.57,475.586,1642.09L475.586,1642.09z M1000.488,1285.156
	c-24.902,61.035-77.637,217.773-109.375,208.984c-27.349-7.324-43.945-125.977-5.376-243.164
	c19.531-59.087,61.035-129.395,85.449-156.743c39.556-43.945,82.52-58.594,93.267-40.527
	C1077.148,1077.148,1016.113,1247.07,1000.488,1285.156z M1433.594,1492.188c-10.742,5.376-20.508,9.277-24.902,6.353
	c-3.418-1.953,4.39-9.277,4.39-9.277s54.199-58.105,75.684-84.961c12.207-15.62,26.855-33.687,42.48-54.199v5.859
	C1531.25,1426.27,1463.867,1473.145,1433.594,1492.188L1433.594,1492.188z M1767.573,1416.016
	c-7.813-5.859-6.831-23.926,19.531-80.566c10.259-22.461,33.691-60.059,74.219-95.703c4.883,14.648,7.817,28.804,7.324,41.992
	C1868.164,1369.629,1805.664,1402.344,1767.573,1416.016z"/>
</svg>
