<?xml version="1.0" encoding="utf-8"?>
<!-- Generator: Adobe Illustrator 16.0.0, SVG Export Plug-In . SVG Version: 6.00 Build 0)  -->
<!DOCTYPE svg PUBLIC "-//W3C//DTD SVG 1.1//EN" "http://www.w3.org/Graphics/SVG/1.1/DTD/svg11.dtd">
<svg version="1.1" id="Layer_1" xmlns="http://www.w3.org/2000/svg" xmlns:xlink="http://www.w3.org/1999/xlink" x="0px" y="0px"
	 width="2192px" height="2500px" viewBox="0 0 2192 2500" enable-background="new 0 0 2192 2500" xml:space="preserve">
<path opacity="0.8" fill="#1B2B34" d="M1915.991,490.925h-0.009c-1.721-12.5-12.671-19.418-21.721-20.18
	c-9.032-0.754-200.196-14.923-200.196-14.923S1561.3,324.016,1546.728,309.426c-14.58-14.581-43.057-10.146-54.109-6.892
	c-1.627,0.479-29.007,8.93-74.298,22.945c-44.35-127.62-122.62-244.897-260.316-244.897c-3.802,0-7.715,0.154-11.627,0.377
	c-39.161-51.79-87.672-74.29-129.572-74.29c-320.762,0-474.007,400.985-522.055,604.751
	c-124.641,38.622-213.185,66.079-224.495,69.632c-69.572,21.824-71.772,24.016-80.908,89.572
	C182.473,820.257,0.435,2228.039,0.435,2228.039l1418.476,265.771l768.578-166.267
	C2187.489,2327.543,1917.687,503.425,1915.991,490.925z M1135.846,398.998c0,4.897-0.043,9.375-0.085,13.904
	c-78.057,24.178-162.877,50.428-247.886,76.764c47.731-184.212,137.2-273.185,215.42-306.747
	C1123.021,232.346,1135.846,303.279,1135.846,398.998z M1007.986,92.706h0.009c13.844,0,27.791,4.7,41.139,13.887
	c-102.8,48.374-212.988,170.206-259.521,413.501l-195.942,60.686C648.175,395.206,777.593,92.706,1007.986,92.706z
	 M1063.234,1177.32c0,0-83.03-44.315-184.812-44.315c-149.212,0-156.721,93.639-156.721,117.234
	c0,128.75,335.616,178.083,335.616,479.658c0,237.269-150.487,390.051-353.398,390.051c-243.493,0-368.014-151.541-368.014-151.541
	l65.196-215.411c0,0,127.997,109.889,236.002,109.889c70.573,0,99.281-55.564,99.281-96.164
	c0-167.945-275.343-175.437-275.343-451.404c0-232.269,166.712-457.037,503.236-457.037c129.666,0,193.725,37.141,193.725,37.141
	L1063.234,1177.32z M1219.896,386.875c0.043-8.459,0.086-16.781,0.086-25.882c0-79.315-11.011-143.176-28.673-193.801
	c70.95,8.904,118.201,89.632,148.612,182.534L1219.896,386.875z"/>
<path fill="#1B2B34" d="M1894.262,470.745c-9.032-0.754-200.196-14.923-200.196-14.923S1561.3,324.016,1546.728,309.426
	c-5.453-5.428-12.808-8.21-20.496-9.409l-107.252,2193.776l768.51-166.25c0,0-269.812-1824.118-271.507-1836.618
	C1914.262,478.425,1903.312,471.507,1894.262,470.745"/>
</svg>
