<?xml version="1.0" encoding="utf-8"?>
<!-- Generator: Adobe Illustrator 16.0.0, SVG Export Plug-In . SVG Version: 6.00 Build 0)  -->
<!DOCTYPE svg PUBLIC "-//W3C//DTD SVG 1.1//EN" "http://www.w3.org/Graphics/SVG/1.1/DTD/svg11.dtd">
<svg version="1.1" id="Layer_1" xmlns="http://www.w3.org/2000/svg" xmlns:xlink="http://www.w3.org/1999/xlink" x="0px" y="0px"
	 width="200px" height="200px" viewBox="0 0 200 200" enable-background="new 0 0 200 200" xml:space="preserve">
<g>
	<path fill="#FFFFFF" d="M197.5,109.375c0,16.172-2.385,29.103-7.148,38.789c-2.969,6.018-7.089,11.211-12.362,15.586
		c-5.274,4.374-10.781,7.735-16.523,10.078c-5.742,2.344-12.385,4.199-19.923,5.566c-7.54,1.366-14.238,2.227-20.098,2.578
		c-5.858,0.352-12.383,0.528-19.57,0.528c-6.094,0-11.642-0.118-16.64-0.352c-5.002-0.235-10.764-0.724-17.285-1.466
		c-6.524-0.743-12.481-1.915-17.872-3.515c-5.391-1.603-10.742-3.614-16.055-6.036c-5.313-2.422-10.04-5.585-14.18-9.491
		c-4.142-3.907-7.5-8.398-10.078-13.478c-4.845-9.61-7.266-22.538-7.266-38.789c0-18.516,5.313-33.985,15.938-46.406
		c-2.109-6.405-3.164-13.047-3.164-19.922c0-9.062,1.992-17.578,5.977-25.548c8.438,0,15.858,1.544,22.266,4.63
		c6.404,3.086,13.787,7.91,22.148,14.473c11.484-2.734,23.555-4.102,36.211-4.102c11.562,0,22.5,1.25,32.813,3.75
		c8.203-6.404,15.508-11.133,21.915-14.181c6.404-3.046,13.787-4.57,22.148-4.57c3.983,7.97,5.976,16.486,5.976,25.548
		c0,6.797-1.054,13.359-3.163,19.688C192.187,75.234,197.5,90.782,197.5,109.375z M171.25,130.001
		c0-9.376-2.695-17.345-8.085-23.908c-5.391-6.563-12.696-9.844-21.915-9.844c-3.204,0-10.82,0.82-22.851,2.461
		c-5.549,0.862-11.681,1.289-18.398,1.289c-6.721,0-12.854-0.427-18.399-1.289c-11.876-1.641-19.493-2.461-22.852-2.461
		c-9.219,0-16.523,3.281-21.913,9.844c-5.391,6.563-8.087,14.532-8.087,23.908c0,6.874,1.249,12.871,3.75,17.986
		c2.499,5.119,5.664,9.143,9.492,12.071c3.826,2.93,8.593,5.274,14.297,7.031c5.702,1.758,11.171,2.91,16.406,3.457
		c5.233,0.547,11.055,0.82,17.462,0.82h19.688c6.404,0,12.225-0.273,17.46-0.82c5.233-0.547,10.702-1.699,16.406-3.457
		c5.702-1.757,10.469-4.102,14.297-7.031c3.827-2.929,6.991-6.952,9.492-12.071C169.999,142.872,171.25,136.875,171.25,130.001z
		 M76.035,120.391c0.977,3.281,1.465,6.485,1.465,9.61c0,3.124-0.488,6.327-1.465,9.608c-0.978,3.281-2.656,6.251-5.039,8.906
		c-2.384,2.656-5.215,3.983-8.496,3.983s-6.114-1.327-8.495-3.983c-2.384-2.655-4.063-5.625-5.04-8.906
		c-0.978-3.281-1.464-6.484-1.464-9.608c0-3.125,0.486-6.329,1.464-9.61c0.977-3.281,2.656-6.249,5.04-8.907
		c2.381-2.654,5.214-3.983,8.495-3.983s6.112,1.329,8.496,3.983C73.379,114.142,75.058,117.109,76.035,120.391z M151.035,120.391
		c0.976,3.281,1.466,6.485,1.466,9.61c0,3.124-0.49,6.327-1.466,9.608c-0.977,3.281-2.656,6.251-5.038,8.906
		c-2.385,2.656-5.216,3.983-8.497,3.983s-6.113-1.327-8.496-3.983c-2.384-2.655-4.063-5.625-5.039-8.906
		c-0.977-3.281-1.464-6.484-1.464-9.608c0-3.125,0.487-6.329,1.464-9.61c0.976-3.281,2.655-6.249,5.039-8.907
		c2.383-2.654,5.215-3.983,8.496-3.983s6.112,1.329,8.497,3.983C148.379,114.142,150.059,117.109,151.035,120.391z"/>
</g>
</svg>
