<?xml version="1.0" encoding="utf-8"?>
<!-- Generator: Adobe Illustrator 16.0.0, SVG Export Plug-In . SVG Version: 6.00 Build 0)  -->
<!DOCTYPE svg PUBLIC "-//W3C//DTD SVG 1.1//EN" "http://www.w3.org/Graphics/SVG/1.1/DTD/svg11.dtd">
<svg version="1.1" id="Layer_1" xmlns="http://www.w3.org/2000/svg" xmlns:xlink="http://www.w3.org/1999/xlink" x="0px" y="0px"
	 width="200px" height="200px" viewBox="0 0 200 200" enable-background="new 0 0 200 200" xml:space="preserve">
<g>
	<path fill="#FFFFFF" d="M197.5,39.063v121.874c0,10.073-3.576,18.684-10.728,25.835c-7.153,7.152-15.765,10.729-25.835,10.729
		H39.063c-10.073,0-18.684-3.576-25.835-10.729C6.075,179.62,2.5,171.01,2.5,160.937V39.063c0-10.072,3.575-18.683,10.728-25.835
		C20.378,6.077,28.989,2.5,39.063,2.5h121.875c10.07,0,18.682,3.577,25.835,10.728C193.924,20.38,197.5,28.991,197.5,39.063z
		 M63.818,50.488c-0.084-4.4-1.609-8.04-4.57-10.918c-2.964-2.876-6.899-4.317-11.807-4.317c-4.909,0-8.908,1.441-11.997,4.317
		c-3.09,2.879-4.633,6.519-4.633,10.918c0,4.315,1.501,7.935,4.507,10.854c3.002,2.92,6.918,4.38,11.742,4.38h0.128
		c4.993,0,9.013-1.459,12.06-4.38C62.296,58.423,63.818,54.804,63.818,50.488z M32.588,165.761h29.326V77.656H32.588V165.761z
		 M138.086,165.761h29.326v-50.527c0-13.032-3.09-22.893-9.268-29.579c-6.18-6.685-14.346-10.03-24.502-10.03
		c-11.512,0-20.356,4.951-26.533,14.854h0.254V77.656H78.037c0.255,5.585,0.255,34.956,0,88.104h29.326v-49.258
		c0-3.215,0.297-5.585,0.889-7.109c1.27-2.96,3.174-5.479,5.713-7.554c2.54-2.072,5.669-3.11,9.395-3.11
		c9.817,0,14.727,6.646,14.727,19.933V165.761z"/>
</g>
</svg>
