<?xml version="1.0" encoding="utf-8"?>
<!-- Generator: Adobe Illustrator 16.0.0, SVG Export Plug-In . SVG Version: 6.00 Build 0)  -->
<!DOCTYPE svg PUBLIC "-//W3C//DTD SVG 1.1//EN" "http://www.w3.org/Graphics/SVG/1.1/DTD/svg11.dtd">
<svg version="1.1" id="Layer_1" xmlns="http://www.w3.org/2000/svg" xmlns:xlink="http://www.w3.org/1999/xlink" x="0px" y="0px"
	 width="200px" height="200px" viewBox="0 0 200 200" enable-background="new 0 0 200 200" xml:space="preserve">
<g>
	<path fill="#FFFFFF" d="M124.374,72.143h59.197v114.91c0,2.901-1.017,5.366-3.047,7.4c-2.033,2.028-4.499,3.047-7.4,3.047H26.875
		c-2.901,0-5.369-1.019-7.399-3.047c-2.031-2.034-3.047-4.499-3.047-7.4V12.947c0-2.901,1.016-5.368,3.047-7.4
		c2.03-2.03,4.498-3.047,7.399-3.047h87.054v59.197c0,2.901,1.016,5.368,3.047,7.398C119.005,71.127,121.473,72.143,124.374,72.143z
		 M141.785,96.518v-6.964c0-1.016-0.326-1.851-0.979-2.504c-0.653-0.653-1.488-0.979-2.504-0.979H61.697
		c-1.018,0-1.851,0.325-2.504,0.979c-0.652,0.653-0.979,1.488-0.979,2.504v6.964c0,1.017,0.326,1.85,0.979,2.503
		c0.653,0.652,1.486,0.979,2.504,0.979h76.605c1.016,0,1.851-0.326,2.504-0.979C141.459,98.367,141.785,97.534,141.785,96.518z
		 M141.785,124.374v-6.964c0-1.016-0.326-1.85-0.979-2.503c-0.653-0.652-1.488-0.979-2.504-0.979H61.697
		c-1.018,0-1.851,0.326-2.504,0.979c-0.652,0.653-0.979,1.487-0.979,2.503v6.964c0,1.017,0.326,1.85,0.979,2.503
		c0.653,0.652,1.486,0.979,2.504,0.979h76.605c1.016,0,1.851-0.326,2.504-0.979C141.459,126.224,141.785,125.391,141.785,124.374z
		 M141.785,152.23v-6.964c0-1.016-0.326-1.85-0.979-2.503c-0.653-0.652-1.488-0.979-2.504-0.979H61.697
		c-1.018,0-1.851,0.326-2.504,0.979c-0.652,0.653-0.979,1.487-0.979,2.503v6.964c0,1.018,0.326,1.851,0.979,2.504
		c0.653,0.653,1.486,0.979,2.504,0.979h76.605c1.016,0,1.851-0.325,2.504-0.979C141.459,154.081,141.785,153.248,141.785,152.23z
		 M176.171,54.297c1.016,1.017,2.031,2.322,3.047,3.917h-51.36V6.854c1.595,1.016,2.9,2.031,3.917,3.047L176.171,54.297z"/>
</g>
</svg>
