<?xml version="1.0" encoding="utf-8"?>
<!-- Generator: Adobe Illustrator 16.0.0, SVG Export Plug-In . SVG Version: 6.00 Build 0)  -->
<!DOCTYPE svg PUBLIC "-//W3C//DTD SVG 1.1//EN" "http://www.w3.org/Graphics/SVG/1.1/DTD/svg11.dtd">
<svg version="1.1" id="Layer_1" xmlns="http://www.w3.org/2000/svg" xmlns:xlink="http://www.w3.org/1999/xlink" x="0px" y="0px"
	 width="328px" height="217px" viewBox="0 0 328 217" enable-background="new 0 0 328 217" xml:space="preserve">
<g>
	<path fill="#1B2B34" d="M10.795,51.948c4.277-0.726,7.462-0.745,9.559-0.061c2.097,0.686,3.509,1.23,4.235,1.633
		c0.161-0.645,0.624-3.286,1.391-7.925c0.766-4.638,2.016-9.62,3.751-14.944c1.734-5.324,4.073-10.104,7.018-14.338
		c2.944-4.235,6.716-6.231,11.313-5.989c1.452,0.081,2.5,0.283,3.146,0.605c0.645,0.323,1.492,1.089,2.541,2.299
		c1.613,2.743,1.895,6.636,0.847,11.676c-1.049,5.042-2.541,10.104-4.477,15.186s-3.933,9.641-5.989,13.673
		c-2.057,4.034-3.288,6.413-3.691,7.139c1.694,0.968,4.193,1.654,7.502,2.057c3.307,0.405,6.837,0.363,10.588-0.121
		s7.441-1.573,11.071-3.267c3.63-1.694,6.655-4.235,9.075-7.623c0.968-0.563,1.613-0.685,1.936-0.363
		c0.321,0.323,0.503,0.768,0.544,1.331c0.04,0.565-0.021,1.412-0.182,2.541c-1.775,3.309-4.779,5.929-9.015,7.865
		c-4.235,1.936-8.651,3.267-13.25,3.993c-4.598,0.726-8.793,0.968-12.584,0.726c-3.792-0.242-6.171-0.887-7.139-1.936
		c-0.968,8.309-1.513,16.235-1.634,23.776c-0.121,7.544,0.061,14.338,0.544,20.388c0.484,6.051,1.189,11.072,2.118,15.065
		c0.926,3.992,1.997,6.715,3.207,8.167c1.21,1.21,3.104,1.976,5.687,2.299c2.581,0.321,5.384-0.968,8.41-3.872
		c3.025-2.903,6.089-8.046,9.196-15.427c3.104-7.382,5.827-18.25,8.167-32.61c0.645-0.968,1.452-1.21,2.42-0.726
		c0.968,0.405,1.452,1.694,1.452,3.872c-3.551,21.538-8.028,36.239-13.431,44.104c-5.405,7.865-10.708,12.039-15.912,12.523
		c-5.203,0.484-9.822-1.131-13.854-4.84c-4.034-3.712-6.455-6.455-7.26-8.229c-2.904-6.292-4.761-13.067-5.566-20.328
		c-0.806-7.26-1.149-14.277-1.029-21.054c0.121-6.776,0.484-12.866,1.089-18.271c0.605-5.403,1.028-9.396,1.271-11.979
		c-1.936-0.726-3.63-1.35-5.082-1.875c-1.452-0.523-3.509-0.866-6.171-1.028c-1.773,0.163-2.863,0.042-3.267-0.363
		c-0.403-0.403-0.484-0.866-0.242-1.392C9.343,53.784,9.908,52.997,10.795,51.948z M49.515,15.527
		c-0.968-0.563-1.796-0.684-2.48-0.363c-0.687,0.323-1.271,0.787-1.754,1.392c-0.484,0.605-0.928,1.512-1.331,2.722
		c-0.968,2.744-1.736,5.808-2.299,9.196c-0.565,3.388-0.989,6.696-1.271,9.922c-0.283,3.228-0.504,6.192-0.665,8.894
		c-0.163,2.704-0.284,4.7-0.363,5.989c-0.242,0.324,0.463-1.089,2.118-4.235c1.652-3.146,3.367-6.897,5.143-11.253
		c1.773-4.356,3.125-8.67,4.053-12.947C51.591,20.569,51.209,17.463,49.515,15.527z"/>
	<path fill="#1B2B34" d="M76.497,113.416c-1.534-3.468-2.521-7.844-2.965-13.129c-0.442-5.282-0.1-10.385,1.029-15.306
		c1.128-4.919,3.246-9.175,6.352-12.766c3.104-3.588,7.481-5.384,13.129-5.384c1.047,0.081,2.299,0.182,3.751,0.302
		c1.452,0.121,2.843,0.424,4.174,0.908c1.332,0.484,2.521,1.331,3.57,2.541c1.047,1.21,1.693,2.904,1.936,5.082
		c0,3.872-0.726,7.12-2.178,9.74c-1.452,2.623-3.167,4.719-5.143,6.292c-1.978,1.573-4.014,2.662-6.11,3.267
		c-2.099,0.605-3.751,0.787-4.961,0.544c0.079,4.84,0.502,8.512,1.271,11.011c0.766,2.502,1.652,4.338,2.662,5.506
		c1.008,1.17,2.076,1.896,3.207,2.178c1.129,0.284,2.057,0.626,2.783,1.029c0.726,0.323,2.015,0.323,3.872,0
		c1.854-0.322,4.012-1.513,6.473-3.57c2.461-2.057,5.082-5.282,7.865-9.68c2.783-4.396,5.425-10.466,7.926-18.21
		c1.289-0.08,2.057,0,2.299,0.242c0.242,0.484,0.363,1.373,0.363,2.662c-3.146,11.616-7.361,19.965-12.645,25.047
		c-5.284,5.082-10.588,8.128-15.912,9.136c-5.324,1.01-10.145,0.605-14.459-1.21C80.469,117.832,77.707,115.757,76.497,113.416z
		 M88.718,91.031c2.904-0.242,5.666-1.068,8.289-2.48c2.621-1.41,4.295-5.021,5.021-10.829c-0.242-3.468-1.23-5.464-2.964-5.99
		c-1.736-0.523-3.085-0.423-4.054,0.303c-1.856,2.259-3.227,4.76-4.114,7.502C90.007,82.279,89.281,86.112,88.718,91.031z"/>
	<path fill="#1B2B34" d="M126.107,93.572c-2.822-6.534-4.638-11.958-5.445-16.274c-0.805-4.314-0.968-7.823-0.484-10.527
		c0.484-2.702,1.393-4.819,2.723-6.353c1.332-1.531,2.803-2.783,4.417-3.751c2.983-1.854,5.626-2.459,7.925-1.815
		c2.3,0.646,3.973,2.178,5.021,4.598c1.048,2.42,1.332,5.505,0.848,9.256s-2.018,7.846-4.598,12.281
		c0.645,1.775,1.673,3.993,3.085,6.655c1.411,2.662,2.862,5.264,4.356,7.804c1.491,2.541,2.862,4.779,4.113,6.716
		c1.25,1.936,2.037,3.106,2.359,3.509c0.242-0.079,1.169-0.483,2.783-1.21c1.613-0.726,3.549-1.936,5.809-3.63
		c2.258-1.694,4.738-3.912,7.441-6.655c2.701-2.741,5.303-6.21,7.805-10.406c1.047-0.726,1.976-0.847,2.782-0.363
		c0.727,0.484,0.848,1.452,0.363,2.904c-2.018,3.872-4.234,7.181-6.655,9.922c-2.42,2.744-4.779,5.083-7.078,7.018
		c-2.299,1.937-4.416,3.509-6.353,4.719s-3.43,2.26-4.478,3.146c0.484,1.21,1.371,3.188,2.662,5.929
		c1.29,2.743,2.098,6.655,2.42,11.737c0.484,4.919-0.162,8.752-1.936,11.495c-1.775,2.741-3.975,4.759-6.594,6.05
		c-2.623,1.289-5.285,2.057-7.986,2.299c-2.703,0.242-4.658,0.282-5.869,0.121c-2.259-0.323-4.881-1.271-7.865-2.844
		s-5.082-3.771-6.291-6.595c-1.211-2.824-0.887-6.252,0.968-10.284c1.854-4.033,6.534-8.752,14.036-14.157
		c-0.646-1.452-1.473-3.207-2.48-5.264c-1.01-2.057-2.018-4.093-3.025-6.11c-1.01-2.016-1.957-3.912-2.844-5.687
		C127.154,96.034,126.51,94.621,126.107,93.572z M138.328,120.313c-6.05,3.309-9.942,6.352-11.676,9.135
		c-1.736,2.783-2.16,5.243-1.271,7.381c0.887,2.137,2.621,3.852,5.203,5.143c2.581,1.29,5.162,2.058,7.744,2.3
		c3.146,0.241,5.082-0.505,5.809-2.239c0.726-1.735,0.786-3.872,0.182-6.413c-0.605-2.541-1.555-5.203-2.844-7.985
		C140.184,124.851,139.134,122.411,138.328,120.313z M134.094,75.422c1.37-2.983,2.178-4.98,2.42-5.989
		c0.242-1.008,0.242-2.762,0-5.264c-0.646-3.388-1.513-4.859-2.602-4.417c-1.09,0.444-1.996,0.908-2.723,1.392
		c-1.291,2.904-1.313,5.587-0.061,8.046C132.379,71.652,133.367,73.728,134.094,75.422z"/>
	<path fill="#1B2B34" d="M174.507,93.572c-2.823-6.534-4.638-11.958-5.445-16.274c-0.806-4.314-0.968-7.823-0.483-10.527
		c0.483-2.702,1.391-4.819,2.722-6.353c1.331-1.531,2.803-2.783,4.417-3.751c2.983-1.854,5.626-2.459,7.926-1.815
		c2.299,0.646,3.972,2.178,5.021,4.598c1.047,2.42,1.331,5.505,0.847,9.256s-2.018,7.846-4.598,12.281
		c0.645,1.775,1.673,3.993,3.085,6.655c1.41,2.662,2.862,5.264,4.356,7.804c1.491,2.541,2.862,4.779,4.113,6.716
		c1.25,1.936,2.037,3.106,2.36,3.509c0.241-0.079,1.168-0.483,2.782-1.21c1.613-0.726,3.549-1.936,5.809-3.63
		c2.257-1.694,4.737-3.912,7.441-6.655c2.701-2.741,5.303-6.21,7.805-10.406c1.047-0.726,1.976-0.847,2.782-0.363
		c0.727,0.484,0.848,1.452,0.363,2.904c-2.018,3.872-4.234,7.181-6.655,9.922c-2.42,2.744-4.779,5.083-7.078,7.018
		c-2.299,1.937-4.416,3.509-6.353,4.719c-1.936,1.21-3.43,2.26-4.477,3.146c0.483,1.21,1.37,3.188,2.662,5.929
		c1.289,2.743,2.097,6.655,2.42,11.737c0.483,4.919-0.163,8.752-1.937,11.495c-1.775,2.741-3.974,4.759-6.595,6.05
		c-2.622,1.289-5.284,2.057-7.985,2.299c-2.704,0.242-4.659,0.282-5.869,0.121c-2.259-0.323-4.881-1.271-7.864-2.844
		c-2.985-1.573-5.082-3.771-6.292-6.595c-1.21-2.824-0.887-6.252,0.968-10.284c1.854-4.033,6.534-8.752,14.036-14.157
		c-0.646-1.452-1.473-3.207-2.48-5.264c-1.01-2.057-2.018-4.093-3.025-6.11c-1.01-2.016-1.957-3.912-2.844-5.687
		C175.554,96.034,174.909,94.621,174.507,93.572z M186.728,120.313c-6.05,3.309-9.942,6.352-11.677,9.135
		c-1.735,2.783-2.158,5.243-1.271,7.381c0.887,2.137,2.621,3.852,5.203,5.143c2.581,1.29,5.162,2.058,7.744,2.3
		c3.146,0.241,5.082-0.505,5.809-2.239c0.726-1.735,0.786-3.872,0.181-6.413c-0.604-2.541-1.554-5.203-2.843-7.985
		C188.582,124.851,187.533,122.411,186.728,120.313z M182.493,75.422c1.37-2.983,2.178-4.98,2.42-5.989
		c0.241-1.008,0.241-2.762,0-5.264c-0.646-3.388-1.513-4.859-2.602-4.417c-1.089,0.444-1.997,0.908-2.723,1.392
		c-1.291,2.904-1.313,5.587-0.061,8.046C180.778,71.652,181.767,73.728,182.493,75.422z"/>
	<path fill="#1B2B34" d="M251.22,88.49c-0.323-4.919-0.828-8.531-1.513-10.83c-0.687-2.299-1.392-3.812-2.117-4.538
		c-0.727-0.726-1.573-0.968-2.541-0.726c-3.309,3.309-5.89,7.502-7.744,12.584c-1.856,5.082-3.146,10.024-3.872,14.823
		c-0.727,4.8-0.989,8.935-0.787,12.402c0.201,3.47,0.787,5.203,1.755,5.203c2.016-0.079,4.175-1.573,6.474-4.478
		c2.299-2.903,3.69-5.687,4.175-8.349c0.968-5.082,2.157-8.167,3.569-9.256c1.41-1.089,2.681-1.108,3.812-0.061
		c1.693,1.291,2.983,2.764,3.872,4.417c0.887,1.654,1.047,3.369,0.483,5.143c-0.726,5.486-1.049,9.619-0.968,12.402
		c0.079,2.783,0.363,4.74,0.847,5.868c0.484,1.131,1.028,1.654,1.634,1.573c0.605-0.079,1.108-0.242,1.513-0.484
		c3.388-2.015,7.179-6.573,11.374-13.673c4.193-7.097,7.581-16.093,10.164-26.983c1.21-0.968,2.097-1.089,2.662-0.363
		c0.887,0.484,1.249,1.615,1.089,3.388c-2.42,9.68-5.021,17.223-7.805,22.626c-2.783,5.405-5.385,9.479-7.805,12.222
		c-2.42,2.743-4.598,4.598-6.534,5.565c-1.936,0.968-3.267,1.895-3.993,2.783c-3.146,1.289-5.607,1.392-7.381,0.303
		c-1.775-1.089-3.146-2.602-4.113-4.538c-0.969-1.936-1.634-3.951-1.997-6.05c-0.363-2.097-0.665-3.509-0.907-4.234
		c-3.793,4.519-7.381,7.018-10.77,7.502c-3.388,0.483-5.607,0.404-6.654-0.242c-3.953-0.563-6.433-3.468-7.441-8.712
		c-1.008-5.243-0.987-11.012,0.061-17.303c1.049-6.292,2.864-12.282,5.444-17.969c2.581-5.687,5.566-9.296,8.954-10.829
		c3.951-1.773,7.26-1.955,9.922-0.545c2.662,1.413,4.78,3.43,6.353,6.05c1.573,2.622,2.642,5.345,3.207,8.167
		c0.563,2.825,0.766,4.719,0.604,5.687L251.22,88.49z"/>
</g>
<g>
	<path fill="#F6C016" d="M70.96,137.999h3.36v31.761h7.12l12.96-15.761h4.4l-14.48,17.2v0.16L100.161,194h-4.24l-14.48-21.12h-7.12
		V194h-3.36V137.999z"/>
	<path fill="#F6C016" d="M113.76,153.999h3.359v7.601c0,1.84-0.32,3.279-0.32,3.279h0.16c2-6.16,6.48-11.2,12.801-11.2
		c0.801,0,1.6,0.08,2.32,0.24v3.36c-0.24-0.08-1.04-0.16-1.84-0.16c-9.36,0-13.121,11.44-13.121,19.601V194h-3.359V153.999z"/>
	<path fill="#F6C016" d="M145.439,153.999h3.359v24.16c0,6.961,0.881,13.521,9.841,13.521c10,0,16.4-8.8,16.4-18.16v-19.521h3.36
		V194h-3.36v-7.04c0-1.84,0.319-3.28,0.319-3.28h-0.16c-1.359,3.76-6.879,11.28-16.56,11.28c-9.841,0-13.2-5.44-13.2-15.601V153.999
		z"/>
	<path fill="#F6C016" d="M210.479,207.521c8.561,0,15.2-4.08,15.2-13.761v-4.64c0-1.84,0.319-3.28,0.319-3.28h-0.159
		c-2.4,4.88-6.8,8.16-13.44,8.16c-10.4,0-17.76-8.16-17.76-20.641s6.799-20.32,17.199-20.32c5.761,0,11.521,2.32,13.921,7.84h0.159
		c0,0-0.239-0.56-0.239-1.52v-5.36h3.36v39.761c0,12.24-8.801,17.041-18.32,17.041c-4.4,0-8.641-1.12-12.561-3.12l1.6-2.96
		C202.719,206.32,206.879,207.521,210.479,207.521z M212.639,190.72c7.04,0,13.12-4.399,13.12-17.36
		c0-12.88-6.08-17.04-13.921-17.04c-8.56,0-13.68,6.24-13.68,17.04C198.158,184.16,204.078,190.72,212.639,190.72z"/>
	<path fill="#F6C016" d="M264.559,153.039c10.881,0,16.32,8.561,16.32,18.24c0,0.641-0.08,1.44-0.16,2.16h-32.08
		c0,11.601,7.84,18.24,17.12,18.24c4.479,0,9.2-1.84,12.399-5.04l1.841,2.8c-3.521,3.36-9.12,5.521-14.24,5.521
		c-11.28,0-20.641-8.16-20.641-20.881C245.118,160.56,254.318,153.039,264.559,153.039z M277.359,170.319
		c-0.4-9.76-6.24-14.16-12.881-14.16c-7.36,0-14.16,4.8-15.6,14.16H277.359z"/>
	<path fill="#F6C016" d="M296.797,153.999h3.361v7.601c0,1.84-0.32,3.279-0.32,3.279h0.16c2-6.16,6.479-11.2,12.8-11.2
		c0.8,0,1.601,0.08,2.32,0.24v3.36c-0.24-0.08-1.04-0.16-1.841-0.16c-9.359,0-13.119,11.44-13.119,19.601V194h-3.361V153.999z"/>
</g>
</svg>
